<?xml version="1.0" encoding="UTF-8" standalone="no"?>
<svg
   xmlns:dc="http://purl.org/dc/elements/1.1/"
   xmlns:cc="http://creativecommons.org/ns#"
   xmlns:rdf="http://www.w3.org/1999/02/22-rdf-syntax-ns#"
   xmlns:svg="http://www.w3.org/2000/svg"
   xmlns="http://www.w3.org/2000/svg"
   id="svg2"
   xml:space="preserve"
   height="163.75"
   viewBox="0 0 720 163.75"
   width="720"
   version="1.1">
  <defs
   id="defs1018" />
  <g
   style="opacity:1;stop-opacity:1"
   stroke="#000"
   stroke-miterlimit="1"
   stroke-width="10"
   fill="none"
   id="g842"
   transform="matrix(0.125,0,0,-0.125,0,163.75)">
    <path
   id="path14"
   d="m 1375,740 h 490" />
    <path
   id="path16"
   d="m 1865,740 c 60,0 120,60 120,120" />
    <path
   id="path18"
   d="M 1985,860 V 980" />
    <path
   id="path20"
   d="m 1985,980 c 0,60 -60,120 -120,120" />
    <path
   id="path22"
   d="M 1865,1100 H 1375" />
    <path
   id="path24"
   d="m 1375,1100 c -60,0 -120,-60 -120,-120" />
    <path
   id="path26"
   d="M 1255,980 V 860" />
    <path
   id="path28"
   d="m 1255,860 c 0,-60 60,-120 120,-120" />
  </g>
  <g
   style="opacity:1;stop-opacity:1"
   id="g30"
   transform="matrix(1.25,0,0,-1.25,0,163.75)"><text
   id="text32"
   transform="matrix(1,0,0,-1,133.5,88.4)"
   font-size="14px"
   font-family="'Times New Roman'"
   fill="#000000"><tspan
     id="tspan34"
     y="0"
     x="0">A</tspan></text>
</g>
  <path
   style="opacity:1;stop-opacity:1;font-variation-settings:normal;vector-effect:none;fill:none;fill-opacity:1;stroke:#000000;stroke-width:1;stroke-linecap:butt;stroke-linejoin:miter;stroke-miterlimit:1;stroke-dasharray:none;stroke-dashoffset:0;stroke-opacity:1;stop-color:#000000"
   id="path36"
   d="m 189.375,71.25 v -45"
   stroke="#000"
   stroke-miterlimit="1"
   stroke-width="10"
   fill="none" />
  <g
   style="opacity:1;stop-opacity:1"
   id="g38"
   transform="matrix(1.25,0,0,-1.25,0,163.75)"><text
   id="text40"
   transform="matrix(1,0,0,-1,159.5,88.4)"
   font-size="14px"
   font-family="'Times New Roman'"
   fill="#000000"><tspan
     id="tspan42"
     y="0"
     x="0 10.03477">h=9</tspan></text>
</g>
  <g
   style="opacity:1;stop-opacity:1"
   stroke="#000"
   stroke-miterlimit="1"
   stroke-width="10"
   fill="none"
   id="g859"
   transform="matrix(0.125,0,0,-0.125,0,163.75)">
    <path
   id="path44"
   d="m 2585,520 h 490" />
    <path
   id="path46"
   d="m 3075,520 c 60,0 120,60 120,120" />
    <path
   id="path48"
   d="M 3195,640 V 760" />
    <path
   id="path50"
   d="m 3195,760 c 0,60 -60,120 -120,120" />
    <path
   id="path52"
   d="M 3075,880 H 2585" />
    <path
   id="path54"
   d="m 2585,880 c -60,0 -120,-60 -120,-120" />
    <path
   id="path56"
   d="M 2465,760 V 640" />
    <path
   id="path58"
   d="m 2465,640 c 0,-60 60,-120 120,-120" />
  </g>
  <g
   style="opacity:1;stop-opacity:1"
   id="g60"
   transform="matrix(1.25,0,0,-1.25,0,163.75)"><text
   id="text62"
   transform="matrix(1,0,0,-1,254.5,66.4)"
   font-size="14px"
   font-family="'Times New Roman'"
   fill="#000000"><tspan
     id="tspan64"
     y="0"
     x="0">B</tspan></text>
</g>
  <path
   style="opacity:1;stop-opacity:1;font-variation-settings:normal;vector-effect:none;fill:none;fill-opacity:1;stroke:#000000;stroke-width:1;stroke-linecap:butt;stroke-linejoin:miter;stroke-miterlimit:1;stroke-dasharray:none;stroke-dashoffset:0;stroke-opacity:1;stop-color:#000000"
   id="path66"
   d="m 340.625,98.75 v -45"
   stroke="#000"
   stroke-miterlimit="1"
   stroke-width="10"
   fill="none" />
  <g
   style="opacity:1;stop-opacity:1"
   id="g68"
   transform="matrix(1.25,0,0,-1.25,0,163.75)"><text
   id="text70"
   transform="matrix(1,0,0,-1,280.5,66.4)"
   font-size="14px"
   font-family="'Times New Roman'"
   fill="#000000"><tspan
     id="tspan72"
     y="0"
     x="0 10.03477">h=10</tspan></text>
</g>
  <path
   style="opacity:1;stop-opacity:1;font-variation-settings:normal;vector-effect:none;fill:none;fill-opacity:1;stroke:#000000;stroke-width:1;stroke-linecap:butt;stroke-linejoin:miter;stroke-miterlimit:1;stroke-dasharray:none;stroke-dashoffset:0;stroke-opacity:1;stop-color:#000000"
   id="path74"
   d="m 248.2875,57.075 c 14.9625,2.7245 31.775,5.774875 47.5,8.637125"
   stroke="#000"
   stroke-miterlimit="1"
   stroke-width="10"
   fill="none" />
  <path
   style="opacity:1;stroke-width:0.125;stop-opacity:1"
   id="path76"
   d="m 296.6,61.4125 11.5125,6.537625 -13.075,2.074625" />
  <path
   style="opacity:1;stop-opacity:1;font-variation-settings:normal;vector-effect:none;fill:none;fill-opacity:1;stroke:#000000;stroke-width:1;stroke-linecap:butt;stroke-linejoin:miter;stroke-miterlimit:1;stroke-dasharray:none;stroke-dashoffset:0;stroke-opacity:1;stop-color:#000000"
   id="path78"
   d="m 296.6,61.4125 11.5125,6.537625 -13.075,2.074625 z"
   stroke="#000"
   stroke-miterlimit="1"
   stroke-width="10"
   fill="none" />
  <g
   style="opacity:1;stop-opacity:1"
   id="g80"
   transform="matrix(1.25,0,0,-1.25,-4,163.75)"><text
   id="text82"
   transform="matrix(1,0,0,-1,218,86.4)"
   font-size="14px"
   font-family="'Times New Roman'"
   fill="#000000"><tspan
     id="tspan84"
     y="0"
     x="0">9</tspan></text>
</g>
  <g
   style="opacity:1;stop-opacity:1"
   stroke="#000"
   stroke-miterlimit="1"
   stroke-width="10"
   fill="none"
   id="g882"
   transform="matrix(0.125,0,0,-0.125,0,163.75)">
    <path
   id="path86"
   d="m 5085,590 h 510" />
    <path
   id="path88"
   d="m 5595,590 c 60,0 120,60 120,120" />
    <path
   id="path90"
   d="M 5715,710 V 830" />
    <path
   id="path92"
   d="m 5715,830 c 0,60 -60,120 -120,120" />
    <path
   id="path94"
   d="M 5595,950 H 5085" />
    <path
   id="path96"
   d="m 5085,950 c -60,0 -120,-60 -120,-120" />
    <path
   id="path98"
   d="M 4965,830 V 710" />
    <path
   id="path100"
   d="m 4965,710 c 0,-60 60,-120 120,-120" />
  </g>
  <g
   style="opacity:1;stop-opacity:1"
   id="g102"
   transform="matrix(1.25,0,0,-1.25,0,163.75)"><text
   id="text104"
   transform="matrix(1,0,0,-1,504.5,73.4)"
   font-size="14px"
   font-family="'Times New Roman'"
   fill="#000000"><tspan
     id="tspan106"
     y="0"
     x="0">G</tspan></text>
</g>
  <path
   style="opacity:1;stop-opacity:1;font-variation-settings:normal;vector-effect:none;fill:none;fill-opacity:1;stroke:#000000;stroke-width:1;stroke-linecap:butt;stroke-linejoin:miter;stroke-miterlimit:1;stroke-dasharray:none;stroke-dashoffset:0;stroke-opacity:1;stop-color:#000000"
   id="path108"
   d="M 655.625,90 V 45"
   stroke="#000"
   stroke-miterlimit="1"
   stroke-width="10"
   fill="none" />
  <g
   style="opacity:1;stop-opacity:1"
   id="g110"
   transform="matrix(1.25,0,0,-1.25,0,163.75)"><text
   id="text112"
   transform="matrix(1,0,0,-1,532.5,73.4)"
   font-size="14px"
   font-family="'Times New Roman'"
   fill="#000000"><tspan
     id="tspan114"
     y="0"
     x="0 10.03477 20.96554">h=0</tspan></text>
</g>
  <path
   style="opacity:1;stop-opacity:1;stroke-width:1;stroke-miterlimit:1;stroke-dasharray:none"
   id="path116"
   d="m 248.25,38.4875 c 8.05,-1.4375 16.3625,-2.7 24.25,-3.4875 128.25,-12.8875 161.6125,-12.625 290,-1.25 15.7375,1.4 19.8,1.95 35,6.25 3.65,1.037625 7.375,2.1875 11.1125,3.412625"
   stroke="#000"
   stroke-miterlimit="1"
   stroke-width="10"
   fill="none" />
  <path
   style="opacity:1;stroke-width:0.125;stop-opacity:1"
   id="path118"
   d="m 610.1375,39.3125 10.35,8.26275 H 607.25" />
  <path
   style="opacity:1;stop-opacity:1;stroke-width:1;stroke-miterlimit:1;stroke-dasharray:none"
   id="path120"
   d="m 610.1375,39.3125 10.35,8.26275 H 607.25 Z"
   stroke="#000"
   stroke-miterlimit="1"
   stroke-width="10"
   fill="none" />
  <g
   style="opacity:1;stop-opacity:1"
   id="g122"
   transform="matrix(1.25,0,0,-1.25,0,163.75)"><text
   id="text124"
   transform="matrix(1,0,0,-1,338.5,115.4)"
   font-size="14px"
   font-family="'Times New Roman'"
   fill="#000000"><tspan
     id="tspan126">9</tspan></text>
</g>
  <g
   style="opacity:1;stop-opacity:1"
   stroke="#000"
   stroke-miterlimit="1"
   stroke-width="10"
   fill="none"
   id="g905"
   transform="matrix(0.125,0,0,-0.125,0,163.75)">
    <path
   id="path128"
   d="m 3885,590 h 490" />
    <path
   id="path130"
   d="m 4375,590 c 60,0 120,60 120,120" />
    <path
   id="path132"
   d="M 4495,710 V 830" />
    <path
   id="path134"
   d="m 4495,830 c 0,60 -60,120 -120,120" />
    <path
   id="path136"
   d="M 4375,950 H 3885" />
    <path
   id="path138"
   d="m 3885,950 c -60,0 -120,-60 -120,-120" />
    <path
   id="path140"
   d="M 3765,830 V 710" />
    <path
   id="path142"
   d="m 3765,710 c 0,-60 60,-120 120,-120" />
  </g>
  <g
   style="opacity:1;stop-opacity:1"
   id="g144"
   transform="matrix(1.25,0,0,-1.25,0,163.75)"><text
   id="text146"
   transform="matrix(1,0,0,-1,384.5,73.4)"
   font-size="14px"
   font-family="'Times New Roman'"
   fill="#000000"><tspan
     id="tspan148"
     y="0"
     x="0">C</tspan></text>
</g>
  <path
   style="opacity:1;stop-opacity:1;font-variation-settings:normal;vector-effect:none;fill:none;fill-opacity:1;stroke:#000000;stroke-width:1;stroke-linecap:butt;stroke-linejoin:miter;stroke-miterlimit:1;stroke-dasharray:none;stroke-dashoffset:0;stroke-opacity:1;stop-color:#000000"
   id="path150"
   d="M 503.125,90 V 45"
   stroke="#000"
   stroke-miterlimit="1"
   stroke-width="10"
   fill="none" />
  <g
   style="opacity:1;stop-opacity:1"
   id="g152"
   transform="matrix(1.25,0,0,-1.25,0,163.75)"><text
   id="text154"
   transform="matrix(1,0,0,-1,410.5,73.4)"
   font-size="14px"
   font-family="'Times New Roman'"
   fill="#000000"><tspan
     id="tspan156"
     y="0"
     x="0 10.03477">h=9</tspan></text>
</g>
  <path
   style="opacity:1;stop-opacity:1;font-variation-settings:normal;vector-effect:none;fill:none;fill-opacity:1;stroke:#000000;stroke-width:1;stroke-linecap:butt;stroke-linejoin:miter;stroke-miterlimit:1;stroke-dasharray:none;stroke-dashoffset:0;stroke-opacity:1;stop-color:#000000"
   id="path158"
   d="m 399.45,73.7875 c 18,-0.962375 38.9,-2.087375 58,-3.125"
   stroke="#000"
   stroke-miterlimit="1"
   stroke-width="10"
   fill="none" />
  <path
   style="opacity:1;stroke-width:0.125;stop-opacity:1"
   id="path160"
   d="m 457.6125,66.275 12.725,3.70025 -12.25,5.037625" />
  <path
   style="opacity:1;stop-opacity:1;font-variation-settings:normal;vector-effect:none;fill:none;fill-opacity:1;stroke:#000000;stroke-width:1;stroke-linecap:butt;stroke-linejoin:miter;stroke-miterlimit:1;stroke-dasharray:none;stroke-dashoffset:0;stroke-opacity:1;stop-color:#000000"
   id="path162"
   d="m 457.6125,66.275 12.725,3.70025 -12.25,5.037625 z"
   stroke="#000"
   stroke-miterlimit="1"
   stroke-width="10"
   fill="none" />
  <g
   style="opacity:1;stop-opacity:1"
   id="g164"
   transform="matrix(1.25,0,0,-1.25,-12,163.75)"><text
   id="text166"
   transform="matrix(1,0,0,-1,343,78.4)"
   font-size="14px"
   font-family="'Times New Roman'"
   fill="#000000"><tspan
     id="tspan168"
     y="0"
     x="0">9</tspan></text>
</g>
  <g
   style="opacity:1;stop-opacity:1"
   stroke="#000"
   stroke-miterlimit="1"
   stroke-width="10"
   fill="none"
   id="g928"
   transform="matrix(0.125,0,0,-0.125,0,163.75)">
    <path
   id="path170"
   d="m 3885,50 h 490" />
    <path
   id="path172"
   d="m 4375,50 c 60,0 120,60 120,120" />
    <path
   id="path174"
   d="M 4495,170 V 290" />
    <path
   id="path176"
   d="m 4495,290 c 0,60 -60,120 -120,120" />
    <path
   id="path178"
   d="M 4375,410 H 3885" />
    <path
   id="path180"
   d="m 3885,410 c -60,0 -120,-60 -120,-120" />
    <path
   id="path182"
   d="M 3765,290 V 170" />
    <path
   id="path184"
   d="m 3765,170 c 0,-60 60,-120 120,-120" />
  </g>
  <g
   style="opacity:1;stop-opacity:1"
   id="g186"
   transform="matrix(1.25,0,0,-1.25,0,163.75)"><text
   id="text188"
   transform="matrix(1,0,0,-1,384.5,19.4)"
   font-size="14px"
   font-family="'Times New Roman'"
   fill="#000000"><tspan
     id="tspan190"
     y="0"
     x="0">E</tspan></text>
</g>
  <path
   style="opacity:1;stop-opacity:1;font-variation-settings:normal;vector-effect:none;fill:none;fill-opacity:1;stroke:#000000;stroke-width:1;stroke-linecap:butt;stroke-linejoin:miter;stroke-miterlimit:1;stroke-dasharray:none;stroke-dashoffset:0;stroke-opacity:1;stop-color:#000000"
   id="path192"
   d="m 503.125,157.5 v -45"
   stroke="#000"
   stroke-miterlimit="1"
   stroke-width="10"
   fill="none" />
  <g
   style="opacity:1;stop-opacity:1"
   id="g194"
   transform="matrix(1.25,0,0,-1.25,0,163.75)"><text
   id="text196"
   transform="matrix(1,0,0,-1,410.5,19.4)"
   font-size="14px"
   font-family="'Times New Roman'"
   fill="#000000"><tspan
     id="tspan198"
     y="0"
     x="0 10.03477">h=5</tspan></text>
</g>
  <path
   style="opacity:1;stop-opacity:1;font-variation-settings:normal;vector-effect:none;fill:none;fill-opacity:1;stroke:#000000;stroke-width:1;stroke-linecap:butt;stroke-linejoin:miter;stroke-miterlimit:1;stroke-dasharray:none;stroke-dashoffset:0;stroke-opacity:1;stop-color:#000000"
   id="path200"
   d="m 399.45,92.775 c 18.35,6.625 39.7,14.35 59.1,21.3625"
   stroke="#000"
   stroke-miterlimit="1"
   stroke-width="10"
   fill="none" />
  <path
   style="opacity:1;stroke-width:0.125;stop-opacity:1"
   id="path202"
   d="m 460.0625,110.0375 10.275,8.36225 -13.25,-0.13712" />
  <path
   style="opacity:1;stop-opacity:1;font-variation-settings:normal;vector-effect:none;fill:none;fill-opacity:1;stroke:#000000;stroke-width:1;stroke-linecap:butt;stroke-linejoin:miter;stroke-miterlimit:1;stroke-dasharray:none;stroke-dashoffset:0;stroke-opacity:1;stop-color:#000000"
   id="path204"
   d="m 460.0625,110.0375 10.275,8.36225 -13.25,-0.13712 z"
   stroke="#000"
   stroke-miterlimit="1"
   stroke-width="10"
   fill="none" />
  <g
   style="opacity:1;stop-opacity:1"
   id="g206"
   transform="matrix(1.25,0,0,-1.25,-4,165.75)"><text
   id="text208"
   transform="matrix(1,0,0,-1,343,54.4)"
   font-size="14px"
   font-family="'Times New Roman'"
   fill="#000000"><tspan
     id="tspan210"
     y="0"
     x="0">5</tspan></text>
</g>
  <path
   style="opacity:1;stop-opacity:1;font-variation-settings:normal;vector-effect:none;fill:none;fill-opacity:1;stroke:#000000;stroke-width:1;stroke-linecap:butt;stroke-linejoin:miter;stroke-miterlimit:1;stroke-dasharray:none;stroke-dashoffset:0;stroke-opacity:1;stop-color:#000000"
   id="path212"
   d="M 562.0375,67.5 H 607.775"
   stroke="#000"
   stroke-miterlimit="1"
   stroke-width="10"
   fill="none" />
  <path
   style="opacity:1;stroke-width:0.125;stop-opacity:1"
   id="path214"
   d="m 607.8,63.125 12.5,4.375 -12.5,4.375" />
  <path
   style="opacity:1;stop-opacity:1;font-variation-settings:normal;vector-effect:none;fill:none;fill-opacity:1;stroke:#000000;stroke-width:1;stroke-linecap:butt;stroke-linejoin:miter;stroke-miterlimit:1;stroke-dasharray:none;stroke-dashoffset:0;stroke-opacity:1;stop-color:#000000"
   id="path216"
   d="m 607.8,63.125 12.5,4.375 -12.5,4.375 z"
   stroke="#000"
   stroke-miterlimit="1"
   stroke-width="10"
   fill="none" />
  <g
   style="opacity:1;stop-opacity:1"
   id="g218"
   transform="matrix(1.25,0,0,-1.25,-6,163.75)"><text
   id="text220"
   transform="matrix(1,0,0,-1,468,82.4)"
   font-size="14px"
   font-family="'Times New Roman'"
   fill="#000000"><tspan
     id="tspan222"
     y="0"
     x="0">8</tspan></text>
</g>
  <g
   style="opacity:1;stop-opacity:1"
   stroke="#000"
   stroke-miterlimit="1"
   stroke-width="10"
   fill="none"
   id="g957"
   transform="matrix(0.125,0,0,-0.125,0,163.75)">
    <path
   id="path224"
   d="m 1365,200 h 510" />
    <path
   id="path226"
   d="m 1875,200 c 60,0 120,60 120,120" />
    <path
   id="path228"
   d="M 1995,320 V 440" />
    <path
   id="path230"
   d="m 1995,440 c 0,60 -60,120 -120,120" />
    <path
   id="path232"
   d="M 1875,560 H 1365" />
    <path
   id="path234"
   d="m 1365,560 c -60,0 -120,-60 -120,-120" />
    <path
   id="path236"
   d="M 1245,440 V 320" />
    <path
   id="path238"
   d="m 1245,320 c 0,-60 60,-120 120,-120" />
  </g>
  <g
   style="opacity:1;stop-opacity:1"
   id="g240"
   transform="matrix(1.25,0,0,-1.25,0,163.75)"><text
   id="text242"
   transform="matrix(1,0,0,-1,132.5,34.4)"
   font-size="14px"
   font-family="'Times New Roman'"
   fill="#000000"><tspan
     id="tspan244"
     y="0"
     x="0">D</tspan></text>
</g>
  <path
   style="opacity:1;stop-opacity:1;font-variation-settings:normal;vector-effect:none;fill:none;fill-opacity:1;stroke:#000000;stroke-width:1;stroke-linecap:butt;stroke-linejoin:miter;stroke-miterlimit:1;stroke-dasharray:none;stroke-dashoffset:0;stroke-opacity:1;stop-color:#000000"
   id="path246"
   d="m 190.625,138.75 v -45"
   stroke="#000"
   stroke-miterlimit="1"
   stroke-width="10"
   fill="none" />
  <g
   style="opacity:1;stop-opacity:1"
   id="g248"
   transform="matrix(1.25,0,0,-1.25,0,163.75)"><text
   id="text250"
   transform="matrix(1,0,0,-1,160.5,34.4)"
   font-size="14px"
   font-family="'Times New Roman'"
   fill="#000000"><tspan
     id="tspan252"
     y="0"
     x="0 10.03477">h=11</tspan></text>
</g>
  <path
   style="opacity:1;stop-opacity:1;font-variation-settings:normal;vector-effect:none;fill:none;fill-opacity:1;stroke:#000000;stroke-width:1;stroke-linecap:butt;stroke-linejoin:miter;stroke-miterlimit:1;stroke-dasharray:none;stroke-dashoffset:0;stroke-opacity:1;stop-color:#000000"
   id="path254"
   d="m 249.525,103.8125 c 14.5,-3.837375 30.6375,-8.100125 45.8125,-12.11225"
   stroke="#000"
   stroke-miterlimit="1"
   stroke-width="10"
   fill="none" />
  <path
   style="opacity:1;stroke-width:0.125;stop-opacity:1"
   id="path256"
   d="m 294.5875,87.375 13.2,1.024875 -10.9625,7.425375" />
  <path
   style="opacity:1;stop-opacity:1;font-variation-settings:normal;vector-effect:none;fill:none;fill-opacity:1;stroke:#000000;stroke-width:1;stroke-linecap:butt;stroke-linejoin:miter;stroke-miterlimit:1;stroke-dasharray:none;stroke-dashoffset:0;stroke-opacity:1;stop-color:#000000"
   id="path258"
   d="m 294.5875,87.375 13.2,1.024875 -10.9625,7.425375 z"
   stroke="#000"
   stroke-miterlimit="1"
   stroke-width="10"
   fill="none" />
  <g
   style="opacity:1;stop-opacity:1"
   id="g260"
   transform="matrix(1.25,0,0,-1.25,-14,165.75)"><text
   id="text262"
   transform="matrix(1,0,0,-1,218,59.4)"
   font-size="14px"
   font-family="'Times New Roman'"
   fill="#000000"><tspan
     id="tspan264"
     y="0"
     x="0">5</tspan></text>
</g>
  <path
   style="opacity:1;stop-opacity:1;font-variation-settings:normal;vector-effect:none;fill:none;fill-opacity:1;stroke:#000000;stroke-width:1;stroke-linecap:butt;stroke-linejoin:miter;stroke-miterlimit:1;stroke-dasharray:none;stroke-dashoffset:0;stroke-opacity:1;stop-color:#000000"
   id="path266"
   d="m 249.9,125.0375 c 17.975,2.95 38.6625,5.8875 57.6,7.4625 50.5125,4.1875 108.15,4.54975 150.0375,4.01275"
   stroke="#000"
   stroke-miterlimit="1"
   stroke-width="10"
   fill="none" />
  <path
   style="opacity:1;stroke-width:0.125;stop-opacity:1"
   id="path268"
   d="m 457.9875,132.125 12.5625,4.1875 -12.425,4.5625" />
  <path
   style="opacity:1;stop-opacity:1;font-variation-settings:normal;vector-effect:none;fill:none;fill-opacity:1;stroke:#000000;stroke-width:1;stroke-linecap:butt;stroke-linejoin:miter;stroke-miterlimit:1;stroke-dasharray:none;stroke-dashoffset:0;stroke-opacity:1;stop-color:#000000"
   id="path270"
   d="m 457.9875,132.125 12.5625,4.1875 -12.425,4.5625 z"
   stroke="#000"
   stroke-miterlimit="1"
   stroke-width="10"
   fill="none" />
  <g
   style="opacity:1;stop-opacity:1"
   id="g272"
   transform="matrix(1.25,0,0,-1.25,-6,167.75)"><text
   id="text274"
   transform="matrix(1,0,0,-1,278,30.4)"
   font-size="14px"
   font-family="'Times New Roman'"
   fill="#000000"><tspan
     id="tspan276"
     y="0"
     x="0">5</tspan></text>
</g>
  <path
   style="opacity:1;stop-opacity:1;font-variation-settings:normal;vector-effect:none;fill:none;fill-opacity:1;stroke:#000000;stroke-width:1;stroke-linecap:butt;stroke-linejoin:miter;stroke-miterlimit:1;stroke-dasharray:none;stroke-dashoffset:0;stroke-opacity:1;stop-color:#000000"
   id="path278"
   d="M 562.0375,114.5625 C 576.725,108.01275 593.2,100.65 608.6875,93.75"
   stroke="#000"
   stroke-miterlimit="1"
   stroke-width="10"
   fill="none" />
  <path
   style="opacity:1;stroke-width:0.125;stop-opacity:1"
   id="path280"
   d="m 607.1,89.6625 13.2,-1.100125 -9.6375,9.100125" />
  <path
   style="opacity:1;stop-opacity:1;font-variation-settings:normal;vector-effect:none;fill:none;fill-opacity:1;stroke:#000000;stroke-width:1;stroke-linecap:butt;stroke-linejoin:miter;stroke-miterlimit:1;stroke-dasharray:none;stroke-dashoffset:0;stroke-opacity:1;stop-color:#000000"
   id="path282"
   d="m 607.1,89.6625 13.2,-1.100125 -9.6375,9.100125 z"
   stroke="#000"
   stroke-miterlimit="1"
   stroke-width="10"
   fill="none" />
  <g
   style="opacity:1;stop-opacity:1"
   id="g284"
   transform="matrix(1.25,0,0,-1.25,-14,167.75)"><text
   id="text286"
   transform="matrix(1,0,0,-1,468,56.4)"
   font-size="14px"
   font-family="'Times New Roman'"
   fill="#000000"><tspan
     id="tspan288"
     y="0"
     x="0">6</tspan></text>
</g>
  <g
   style="opacity:1;stop-opacity:1"
   stroke="#000"
   stroke-miterlimit="1"
   stroke-width="10"
   fill="none"
   id="g992"
   transform="matrix(0.125,0,0,-0.125,0,163.75)">
    <path
   id="path290"
   d="M 165,460 H 655" />
    <path
   id="path292"
   d="m 655,460 c 60,0 120,60 120,120" />
    <path
   id="path294"
   d="M 775,580 V 700" />
    <path
   id="path296"
   d="m 775,700 c 0,60 -60,120 -120,120" />
    <path
   id="path298"
   d="M 655,820 H 165" />
    <path
   id="path300"
   d="M 165,820 C 105,820 45,760 45,700" />
    <path
   id="path302"
   d="M 45,700 V 580" />
    <path
   id="path304"
   d="M 45,580 C 45,520 105,460 165,460" />
  </g>
  <g
   style="opacity:1;stop-opacity:1"
   id="g306"
   transform="matrix(1.25,0,0,-1.25,0,163.75)"><text
   id="text308"
   transform="matrix(1,0,0,-1,12.5,60.4)"
   font-size="14px"
   font-family="'Times New Roman'"
   fill="#000000"><tspan
     id="tspan310"
     y="0"
     x="0">S</tspan></text>
</g>
  <path
   style="opacity:1;stop-opacity:1;font-variation-settings:normal;vector-effect:none;fill:none;fill-opacity:1;stroke:#000000;stroke-width:1;stroke-linecap:butt;stroke-linejoin:miter;stroke-miterlimit:1;stroke-dasharray:none;stroke-dashoffset:0;stroke-opacity:1;stop-color:#000000"
   id="path312"
   d="m 38.125,106.25 v -45"
   stroke="#000"
   stroke-miterlimit="1"
   stroke-width="10"
   fill="none" />
  <g
   style="opacity:1;stop-opacity:1"
   id="g314"
   transform="matrix(1.25,0,0,-1.25,0,163.75)"><text
   id="text316"
   transform="matrix(1,0,0,-1,38.5,60.4)"
   font-size="14px"
   font-family="'Times New Roman'"
   fill="#000000"><tspan
     id="tspan318"
     y="0"
     x="0 10.03477"
     dy="0 0">h=16</tspan></text>
</g>
  <path
   style="opacity:1;stop-opacity:1;stroke-width:1;stroke-miterlimit:1;stroke-dasharray:none"
   id="path320"
   d="M 97.0375,73.15 C 112,69.6875 128.8125,65.8 144.5375,62.1625"
   stroke="#000"
   stroke-miterlimit="1"
   stroke-width="10"
   fill="none" />
  <path
   style="opacity:1;stroke-width:0.125;stop-opacity:1"
   id="path322"
   d="m 143.7,57.8625 13.1625,1.45 -11.1875,7.075" />
  <path
   style="opacity:1;stop-opacity:1;font-variation-settings:normal;vector-effect:none;fill:none;fill-opacity:1;stroke:#000000;stroke-width:1;stroke-linecap:butt;stroke-linejoin:miter;stroke-miterlimit:1;stroke-dasharray:none;stroke-dashoffset:0;stroke-opacity:1;stop-color:#000000"
   id="path324"
   d="M 143.7,57.8625 156.8625,59.31275 145.675,66.388 Z"
   stroke="#000"
   stroke-miterlimit="1"
   stroke-width="10"
   fill="none" />
  <g
   style="opacity:1;stop-opacity:1"
   id="g326"
   transform="matrix(1.25,0,0,-1.25,-12,165.75)"><text
   id="text328"
   transform="matrix(1,0,0,-1,96,83.4)"
   font-size="14px"
   font-family="'Times New Roman'"
   fill="#000000"><tspan
     id="tspan330"
     y="0"
     x="0">6</tspan></text>
</g>
  <path
   style="opacity:1;stop-opacity:1;font-variation-settings:normal;vector-effect:none;fill:none;fill-opacity:1;stroke:#000000;stroke-width:1;stroke-linecap:butt;stroke-linejoin:miter;stroke-miterlimit:1;stroke-dasharray:none;stroke-dashoffset:0;stroke-opacity:1;stop-color:#000000"
   id="path332"
   d="m 96.8875,97.9375 c 7.675,2.125 15.5875,4.15 23.1125,5.8125 7.3375,1.61225 15.1,3.08738 22.8,4.41262"
   stroke="#000"
   stroke-miterlimit="1"
   stroke-width="10"
   fill="none" />
  <path
   style="opacity:1;stroke-width:0.125;stop-opacity:1"
   id="path334"
   d="m 143.975,103.925 11.6375,6.325 -13.0375,2.3125" />
  <path
   style="opacity:1;stop-opacity:1;font-variation-settings:normal;vector-effect:none;fill:none;fill-opacity:1;stroke:#000000;stroke-width:1;stroke-linecap:butt;stroke-linejoin:miter;stroke-miterlimit:1;stroke-dasharray:none;stroke-dashoffset:0;stroke-opacity:1;stop-color:#000000"
   id="path336"
   d="m 143.975,103.925 11.6375,6.32525 -13.0375,2.3125 z"
   stroke="#000"
   stroke-miterlimit="1"
   stroke-width="10"
   fill="none" />
  <g
   style="opacity:1;stop-opacity:1"
   id="g338"
   transform="matrix(1.25,0,0,-1.25,-2,165.75)"><text
   id="text340"
   transform="matrix(1,0,0,-1,96,53.4)"
   font-size="14px"
   font-family="'Times New Roman'"
   fill="#000000"><tspan
     id="tspan342"
     y="0"
     x="0">8</tspan></text>
</g>
</svg>
